<svg width="24" height="24" viewBox="0 0 24 24" fill="none" xmlns="http://www.w3.org/2000/svg">
<path d="M4 20C3.45 20 2.979 19.804 2.587 19.412C2.195 19.02 1.99934 18.5493 2 18V6C2 5.45 2.196 4.979 2.588 4.587C2.98 4.195 3.45067 3.99934 4 4H10L12 6H20C20.55 6 21.021 6.196 21.413 6.588C21.805 6.98 22.0007 7.45067 22 8H11.175L9.175 6H4V18L6.4 10H23.5L20.925 18.575C20.7917 19.0083 20.5457 19.3543 20.187 19.613C19.8283 19.8717 19.4327 20.0007 19 20H4ZM6.1 18H19L20.8 12H7.9L6.1 18Z" fill="white"/>
</svg>
