<svg width="24" height="24" viewBox="0 0 24 24" fill="none" xmlns="http://www.w3.org/2000/svg">
<path d="M22.8694 8.68781L5.61937 2.68781C5.44989 2.6289 5.26876 2.61138 5.09112 2.63672C4.91349 2.66206 4.74449 2.72952 4.59823 2.83348C4.45198 2.93744 4.33271 3.07487 4.25039 3.23431C4.16806 3.39374 4.12507 3.57056 4.125 3.75V20.25C4.125 20.5484 4.24353 20.8345 4.4545 21.0455C4.66548 21.2565 4.95163 21.375 5.25 21.375C5.54837 21.375 5.83452 21.2565 6.0455 21.0455C6.25647 20.8345 6.375 20.5484 6.375 20.25V16.5497L22.8694 10.8122C23.0898 10.7353 23.2808 10.5917 23.4159 10.4014C23.5511 10.2111 23.6237 9.98343 23.6237 9.75C23.6237 9.51657 23.5511 9.28892 23.4159 9.0986C23.2808 8.90828 23.0898 8.76472 22.8694 8.68781ZM6.375 14.1675V5.3325L19.0753 9.75L6.375 14.1675Z" fill="#8147AE"/>
</svg>
